<svg version="1.1" id="word-balloon" xmlns="http://www.w3.org/2000/svg" xmlns:xlink="http://www.w3.org/1999/xlink" x="0px" y="0px" viewBox="0 0 360 360">
<path id="motion_balloon" fill="none" stroke="none" stroke-miterlimit="0" d="M1.4-4.6C-1.4-5.8-4.7-3.9-5-0.7C-5.2,1.9-3.6,4.7-0.3,5l0,0c5.4,0.7,7.4-7.2,2.3-9.3L1.4-4.6z"/>
<path id="speech_balloon" fill="#FFFFFF" stroke="#000000" stroke-width="8" d="M33.6,107.6c12.9,0,25.8-0.2,38.8,0.1c4.1,0.1,5.1-0.8,5.2-5.1 c0.4-22.8,17.1-39.8,39.9-39.9c56.6-0.3,113.3-0.3,169.9,0c22.8,0.1,39.8,17,39.9,39.9c0.3,51.6,0.3,103.2,0,154.8 c-0.1,22.8-17.4,39.8-40.5,39.9c-56.3,0.3-112.6,0.3-168.9,0c-23.7-0.1-40.3-17.7-40.4-41.5c-0.1-33-0.1-65.9,0-98.9 c0-3.1-0.8-5.2-3-7.4c-12.7-12.5-25.2-25.2-37.9-37.7c-1.1-1.1-2.7-1.7-4.1-2.6C32.9,108.6,33.3,108.1,33.6,107.6z"/>
<animateMotion xlink:href="#speech_balloon" dur="6s" begin="0s" fill="freeze" repeatCount="indefinite"><mpath xlink:href="#motion_balloon" /></animateMotion>
</svg>
